<svg version="1.1" viewBox="0.0 0.0 960.0 540.0" fill="none" stroke="none" stroke-linecap="square" stroke-miterlimit="10" xmlns:xlink="http://www.w3.org/1999/xlink" xmlns="http://www.w3.org/2000/svg"><clipPath id="g5d42b80eb6_0_0.0"><path d="m0 0l960.0 0l0 540.0l-960.0 0l0 -540.0z" clip-rule="nonzero"/></clipPath><g clip-path="url(#g5d42b80eb6_0_0.0)"><path fill="#ffffff" d="m0 0l960.0 0l0 540.0l-960.0 0z" fill-rule="evenodd"/><path fill="#cfe2f3" d="m192.67717 94.40945l427.6535 0l0 130.4567l-427.6535 0z" fill-rule="evenodd"/><path fill="#000000" d="m216.86467 161.31093l-9.546875 0l0 10.046875l-3.0 0l0 -22.75l14.09375 0l0 2.46875l-11.09375 0l0 7.78125l9.546875 0l0 2.453125zm12.453125 -4.265625q-0.65625 -0.109375 -1.421875 -0.109375q-2.84375 0 -3.859375 2.421875l0 12.0l-2.890625 0l0 -16.90625l2.8125 0l0.046875 1.953125q1.421875 -2.265625 4.03125 -2.265625q0.84375 0 1.28125 0.21875l0 2.6875zm1.578125 5.703125q0 -2.484375 0.96875 -4.46875q0.984375 -1.984375 2.71875 -3.0625q1.75 -1.078125 3.984375 -1.078125q3.453125 0 5.578125 2.390625q2.140625 2.390625 2.140625 6.359375l0 0.203125q0 2.46875 -0.953125 4.4375q-0.9375 1.953125 -2.703125 3.046875q-1.75 1.09375 -4.03125 1.09375q-3.4375 0 -5.578125 -2.390625q-2.125 -2.390625 -2.125 -6.328125l0 -0.203125zm2.90625 0.34375q0 2.8125 1.296875 4.515625q1.3125 1.703125 3.5 1.703125q2.203125 0 3.5 -1.71875q1.296875 -1.734375 1.296875 -4.84375q0 -2.78125 -1.328125 -4.5q-1.3125 -1.734375 -3.5 -1.734375q-2.140625 0 -3.453125 1.703125q-1.3125 1.703125 -1.3125 4.875zm18.84375 -8.640625l0.09375 2.125q1.9375 -2.4375 5.0624847 -2.4375q5.359375 0 5.40625 6.046875l0 11.171875l-2.890625 0l0 -11.1875q-0.015625 -1.828125 -0.84375 -2.703125q-0.8125 -0.875 -2.546875 -0.875q-1.4062347 0 -2.4687347 0.75q-1.0625 0.75 -1.65625 1.96875l0 12.046875l-2.890625 0l0 -16.90625l2.734375 0zm18.843735 -4.09375l0 4.09375l3.15625 0l0 2.234375l-3.15625 0l0 10.484375q0 1.015625 0.421875 1.53125q0.421875 0.5 1.4375 0.5q0.5 0 1.375 -0.1875l0 2.34375q-1.140625 0.3125 -2.21875 0.3125q-1.9375 0 -2.921875 -1.171875q-0.984375 -1.171875 -0.984375 -3.328125l0 -10.484375l-3.078125 0l0 -2.234375l3.078125 0l0 -4.09375l2.890625 0zm13.546875 21.3125q-3.4375 0 -5.59375 -2.25q-2.15625 -2.265625 -2.15625 -6.046875l0 -0.53125q0 -2.515625 0.953125 -4.484375q0.96875 -1.984375 2.6875 -3.09375q1.734375 -1.125 3.75 -1.125q3.296875 0 5.125 2.171875q1.828125 2.171875 1.828125 6.21875l0 1.203125l-11.453125 0q0.0625 2.5 1.453125 4.046875q1.40625 1.53125 3.5625 1.53125q1.53125 0 2.59375 -0.625q1.0625 -0.625 1.859375 -1.65625l1.765625 1.375q-2.125 3.265625 -6.375 3.265625zm-0.359375 -15.15625q-1.75 0 -2.9375 1.28125q-1.1875 1.265625 -1.46875 3.5625l8.46875 0l0 -0.21875q-0.125 -2.203125 -1.1875 -3.40625q-1.0625 -1.21875 -2.875 -1.21875zm13.03125 -2.0625l0.09375 2.125q1.9375 -2.4375 5.0625 -2.4375q5.359375 0 5.40625 6.046875l0 11.171875l-2.890625 0l0 -11.1875q-0.015625 -1.828125 -0.84375 -2.703125q-0.8125 -0.875 -2.546875 -0.875q-1.40625 0 -2.46875 0.75q-1.0625 0.75 -1.65625 1.96875l0 12.046875l-2.890625 0l0 -16.90625l2.734375 0zm14.21875 8.3125q0 -3.890625 1.84375 -6.25q1.84375 -2.375 4.828125 -2.375q2.96875 0 4.703125 2.03125l0 -8.8125l2.890625 0l0 24.0l-2.65625 0l-0.140625 -1.8125q-1.734375 2.125 -4.828125 2.125q-2.9375 0 -4.796875 -2.40625q-1.84375 -2.40625 -1.84375 -6.28125l0 -0.21875zm2.890625 0.328125q0 2.875 1.1875 4.5q1.1875 1.625 3.28125 1.625q2.75 0 4.015625 -2.46875l0 -7.765625q-1.296875 -2.390625 -3.984375 -2.390625q-2.125 0 -3.3125 1.640625q-1.1875 1.640625 -1.1875 4.859375zm23.671875 -0.96875q0 -3.53125 0.9375 -6.78125q0.953125 -3.25 2.828125 -5.90625q1.875 -2.65625 3.890625 -3.75l0.59375 1.90625q-2.28125 1.75 -3.75 5.34375q-1.453125 3.59375 -1.59375 8.046875l-0.015625 1.328125q0 6.03125 2.203125 10.46875q1.328125 2.65625 3.15625 4.15625l-0.59375 1.765625q-2.078125 -1.15625 -3.96875 -3.875q-3.6875 -5.3125 -3.6875 -12.703125zm26.015625 5.25l3.25 -12.921875l2.890625 0l-4.921875 16.90625l-2.34375 0l-4.109375 -12.8125l-4.0 12.8125l-2.34375 0l-4.90625 -16.90625l2.875 0l3.328125 12.65625l3.9375 -12.65625l2.328125 0l4.015625 12.921875zm16.09375 4.296875q-3.4375 0 -5.59375 -2.25q-2.15625 -2.265625 -2.15625 -6.046875l0 -0.53125q0 -2.515625 0.953125 -4.484375q0.96875 -1.984375 2.6875 -3.09375q1.734375 -1.125 3.75 -1.125q3.296875 0 5.125 2.171875q1.828125 2.171875 1.828125 6.21875l0 1.203125l-11.453125 0q0.0625 2.5 1.453125 4.046875q1.40625 1.53125 3.5625 1.53125q1.53125 0 2.59375 -0.625q1.0625 -0.625 1.859375 -1.65625l1.765625 1.375q-2.125 3.265625 -6.375 3.265625zm-0.359375 -15.15625q-1.75 0 -2.9375 1.28125q-1.1875 1.265625 -1.46875 3.5625l8.46875 0l0 -0.21875q-0.125 -2.203125 -1.1875 -3.40625q-1.0625 -1.21875 -2.875 -1.21875zm24.609375 6.578125q0 3.875 -1.78125 6.234375q-1.78125 2.34375 -4.78125 2.34375q-3.203125 0 -4.953125 -2.265625l-0.140625 1.953125l-2.65625 0l0 -24.0l2.890625 0l0 8.953125q1.75 -2.171875 4.828125 -2.171875q3.078125 0 4.828125 2.328125q1.765625 2.328125 1.765625 6.375l0 0.25zm-2.890625 -0.328125q0 -2.953125 -1.140625 -4.5625q-1.140625 -1.609375 -3.28125 -1.609375q-2.859375 0 -4.109375 2.65625l0 7.3125q1.328125 2.65625 4.140625 2.65625q2.078125 0 3.234375 -1.609375q1.15625 -1.609375 1.15625 -4.84375zm16.375 4.109375q0 -1.171875 -0.890625 -1.8125q-0.875 -0.65625 -3.078125 -1.125q-2.1875 -0.46875 -3.484375 -1.125q-1.28125 -0.65625 -1.90625 -1.5625q-0.609375 -0.90625 -0.609375 -2.15625q0 -2.078125 1.75 -3.515625q1.765625 -1.4375 4.5 -1.4375q2.875 0 4.65625 1.484375q1.796875 1.484375 1.796875 3.796875l-2.90625 0q0 -1.1875 -1.015625 -2.046875q-1.0 -0.859375 -2.53125 -0.859375q-1.578125 0 -2.46875 0.6875q-0.890625 0.6875 -0.890625 1.796875q0 1.046875 0.828125 1.578125q0.828125 0.53125 2.984375 1.015625q2.171875 0.484375 3.515625 1.15625q1.34375 0.671875 1.984375 1.625q0.65625 0.9375 0.65625 2.296875q0 2.265625 -1.8125 3.640625q-1.8125 1.359375 -4.703125 1.359375q-2.03125 0 -3.59375 -0.71875q-1.5625 -0.71875 -2.453125 -2.0q-0.875 -1.296875 -0.875 -2.796875l2.890625 0q0.078125 1.453125 1.15625 2.3125q1.09375 0.84375 2.875 0.84375q1.640625 0 2.625 -0.65625q1.0 -0.671875 1.0 -1.78125zm9.796875 4.484375l-2.890625 0l0 -16.90625l2.890625 0l0 16.90625zm-3.125 -21.390625q0 -0.703125 0.421875 -1.1875q0.4375 -0.484375 1.28125 -0.484375q0.84375 0 1.28125 0.484375q0.4375 0.484375 0.4375 1.1875q0 0.703125 -0.4375 1.171875q-0.4375 0.46875 -1.28125 0.46875q-0.84375 0 -1.28125 -0.46875q-0.421875 -0.46875 -0.421875 -1.171875zm11.671875 0.390625l0 4.09375l3.15625 0l0 2.234375l-3.15625 0l0 10.484375q0 1.015625 0.421875 1.53125q0.421875 0.5 1.4375 0.5q0.5 0 1.375 -0.1875l0 2.34375q-1.140625 0.3125 -2.21875 0.3125q-1.9375 0 -2.921875 -1.171875q-0.984375 -1.171875 -0.984375 -3.328125l0 -10.484375l-3.078125 0l0 -2.234375l3.078125 0l0 -4.09375l2.890625 0zm13.546875 21.3125q-3.4375 0 -5.59375 -2.25q-2.15625 -2.265625 -2.15625 -6.046875l0 -0.53125q0 -2.515625 0.953125 -4.484375q0.96875 -1.984375 2.6875 -3.09375q1.734375 -1.125 3.75 -1.125q3.296875 0 5.125 2.171875q1.828125 2.171875 1.828125 6.21875l0 1.203125l-11.453125 0q0.0625 2.5 1.453125 4.046875q1.40625 1.53125 3.5625 1.53125q1.53125 0 2.59375 -0.625q1.0625 -0.625 1.859375 -1.65625l1.765625 1.375q-2.125 3.265625 -6.375 3.265625zm-0.359375 -15.15625q-1.75 0 -2.9375 1.28125q-1.1875 1.265625 -1.46875 3.5625l8.46875 0l0 -0.21875q-0.125 -2.203125 -1.1875 -3.40625q-1.0625 -1.21875 -2.875 -1.21875zm16.96875 5.765625q0 3.484375 -0.921875 6.6875q-0.90625 3.1875 -2.796875 5.890625q-1.875 2.703125 -3.9375 3.84375l-0.609375 -1.765625q2.40625 -1.84375 3.859375 -5.71875q1.46875 -3.890625 1.5 -8.625l0 -0.5q0 -3.28125 -0.6875 -6.09375q-0.6875 -2.828125 -1.921875 -5.0625q-1.21875 -2.234375 -2.75 -3.484375l0.609375 -1.765625q2.0625 1.140625 3.921875 3.8125q1.875 2.671875 2.796875 5.890625q0.9375 3.21875 0.9375 6.890625z" fill-rule="nonzero"/><path fill="#9fc5e8" d="m139.37007 224.86613l534.26776 0l0 130.45671l-534.26776 0z" fill-rule="evenodd"/><path fill="#000000" d="m151.0107 282.81448l0 -22.75l7.4375 0q3.703125 0 5.5625 1.53125q1.875 1.53125 1.875 4.53125q0 1.59375 -0.90625 2.828125q-0.90625 1.21875 -2.46875 1.890625q1.84375 0.515625 2.90625 1.96875q1.078125 1.4375 1.078125 3.4375q0 3.0625 -1.984375 4.8125q-1.984375 1.75 -5.609375 1.75l-7.890625 0zm3.0 -10.640625l0 8.1875l4.953125 0q2.09375 0 3.296875 -1.078125q1.21875 -1.09375 1.21875 -3.0q0 -4.109375 -4.46875 -4.109375l-5.0 0zm0 -2.40625l4.53125 0q1.96875 0 3.140625 -0.984375q1.1875 -0.984375 1.1875 -2.671875q0 -1.875 -1.09375 -2.71875q-1.09375 -0.859375 -3.328125 -0.859375l-4.4375 0l0 7.234375zm26.90625 13.046875q-0.25 -0.5 -0.40625 -1.78125q-2.015625 2.09375 -4.8125 2.09375q-2.5 0 -4.109375 -1.40625q-1.59375 -1.421875 -1.59375 -3.59375q0 -2.640625 2.0 -4.09375q2.015625 -1.46875 5.65625 -1.46875l2.8125 0l0 -1.328125q0 -1.515625 -0.90625 -2.40625q-0.90625 -0.90625 -2.671875 -0.90625q-1.546875 0 -2.59375 0.78125q-1.046875 0.78125 -1.046875 1.890625l-2.90625 0q0 -1.265625 0.890625 -2.4375q0.90625 -1.1875 2.4375 -1.875q1.546875 -0.6875 3.390625 -0.6875q2.921875 0 4.578125 1.46875q1.65625 1.453125 1.71875 4.015625l0 7.78125q0 2.328125 0.59375 3.703125l0 0.25l-3.03125 0zm-4.796875 -2.203125q1.359375 0 2.578125 -0.703125q1.21875 -0.703125 1.765625 -1.828125l0 -3.46875l-2.265625 0q-5.3125 0 -5.3125 3.109375q0 1.359375 0.90625 2.125q0.90625 0.765625 2.328125 0.765625zm18.546875 0.15625q1.546875 0 2.703125 -0.9375q1.15625 -0.9375 1.28125 -2.34375l2.734375 0q-0.078125 1.453125 -1.0 2.765625q-0.921875 1.3125 -2.46875 2.09375q-1.53125 0.78125 -3.25 0.78125q-3.453125 0 -5.5 -2.296875q-2.03125 -2.3125 -2.03125 -6.3125l0 -0.484375q0 -2.46875 0.90625 -4.390625q0.90625 -1.921875 2.59375 -2.984375q1.703125 -1.0625 4.015625 -1.0625q2.84375 0 4.71875 1.703125q1.890625 1.703125 2.015625 4.421875l-2.734375 0q-0.125 -1.640625 -1.25 -2.6875q-1.109375 -1.0625 -2.75 -1.0625q-2.203125 0 -3.421875 1.59375q-1.203125 1.578125 -1.203125 4.578125l0 0.546875q0 2.921875 1.203125 4.5q1.203125 1.578125 3.4375 1.578125zm14.6875 -5.78125l-1.8125 1.890625l0 5.9375l-2.890625 0l0 -24.0l2.890625 0l0 14.515625l1.546875 -1.859375l5.265625 -5.5625l3.515625 0l-6.578125 7.0625l7.34375 9.84375l-3.390625 0l-5.890625 -7.828125zm18.203125 8.140625q-3.4375 0 -5.59375 -2.25q-2.15625 -2.265625 -2.15625 -6.046875l0 -0.53125q0 -2.515625 0.953125 -4.484375q0.96875 -1.984375 2.6875 -3.09375q1.734375 -1.125 3.75 -1.125q3.296875 0 5.125 2.171875q1.828125 2.171875 1.828125 6.21875l0 1.203125l-11.453125 0q0.0625 2.5 1.453125 4.046875q1.40625 1.53125 3.5625 1.53125q1.53125 0 2.59375 -0.625q1.0625 -0.625 1.859375 -1.65625l1.765625 1.375q-2.125 3.265625 -6.375 3.265625zm-0.359375 -15.15625q-1.75 0 -2.9375 1.28125q-1.1875 1.265625 -1.46875 3.5625l8.46875 0l0 -0.21875q-0.125 -2.203125 -1.1875 -3.40625q-1.0625 -1.21875 -2.875 -1.21875zm13.03125 -2.0625l0.09375 2.125q1.9375 -2.4375 5.0625 -2.4375q5.359375 0 5.40625 6.046875l0 11.171875l-2.890625 0l0 -11.1875q-0.015625 -1.828125 -0.84375 -2.703125q-0.8125 -0.875 -2.546875 -0.875q-1.40625 0 -2.46875 0.75q-1.0625 0.75 -1.65625 1.96875l0 12.046875l-2.890625 0l0 -16.90625l2.734375 0zm14.21875 8.3125q0 -3.890625 1.8437653 -6.25q1.84375 -2.375 4.828125 -2.375q2.96875 0 4.703125 2.03125l0 -8.8125l2.890625 0l0 24.0l-2.65625 0l-0.140625 -1.8125q-1.734375 2.125 -4.828125 2.125q-2.9375 0 -4.796875 -2.40625q-1.8437653 -2.40625 -1.8437653 -6.28125l0 -0.21875zm2.8906403 0.328125q0 2.875 1.1875 4.5q1.1875 1.625 3.28125 1.625q2.75 0 4.015625 -2.46875l0 -7.765625q-1.296875 -2.390625 -3.984375 -2.390625q-2.125 0 -3.3125 1.640625q-1.1875 1.640625 -1.1875 4.859375zm25.8125 -16.03125l1.65625 1.125q-1.453125 1.984375 -1.5 4.28125l0 2.125l-2.875 0l0 -1.8125q0 -1.59375 0.75 -3.15625q0.765625 -1.5625 1.96875 -2.5625zm5.0 0l1.65625 1.125q-1.453125 1.984375 -1.5 4.28125l0 2.125l-2.875 0l0 -1.8125q0 -1.59375 0.75 -3.15625q0.765625 -1.5625 1.96875 -2.5625zm2.65625 15.703125q0 -3.890625 1.84375 -6.25q1.84375 -2.375 4.828125 -2.375q2.96875 0 4.703125 2.03125l0 -8.8125l2.890625 0l0 24.0l-2.65625 0l-0.140625 -1.8125q-1.734375 2.125 -4.828125 2.125q-2.9375 0 -4.796875 -2.40625q-1.84375 -2.40625 -1.84375 -6.28125l0 -0.21875zm2.890625 0.328125q0 2.875 1.1875 4.5q1.1875 1.625 3.28125 1.625q2.75 0 4.015625 -2.46875l0 -7.765625q-1.296875 -2.390625 -3.984375 -2.390625q-2.125 0 -3.3125 1.640625q-1.1875 1.640625 -1.1875 4.859375zm26.296875 8.265625q-0.25 -0.5 -0.40625 -1.78125q-2.015625 2.09375 -4.8125 2.09375q-2.5 0 -4.109375 -1.40625q-1.59375 -1.421875 -1.59375 -3.59375q0 -2.640625 2.0 -4.09375q2.015625 -1.46875 5.65625 -1.46875l2.8125 0l0 -1.328125q0 -1.515625 -0.90625 -2.40625q-0.90625 -0.90625 -2.671875 -0.90625q-1.546875 0 -2.59375 0.78125q-1.046875 0.78125 -1.046875 1.890625l-2.90625 0q0 -1.265625 0.890625 -2.4375q0.90625 -1.1875 2.4375 -1.875q1.546875 -0.6875 3.390625 -0.6875q2.921875 0 4.578125 1.46875q1.65625 1.453125 1.71875 4.015625l0 7.78125q0 2.328125 0.59375 3.703125l0 0.25l-3.03125 0zm-4.796875 -2.203125q1.359375 0 2.578125 -0.703125q1.21875 -0.703125 1.765625 -1.828125l0 -3.46875l-2.265625 0q-5.3125 0 -5.3125 3.109375q0 1.359375 0.90625 2.125q0.90625 0.765625 2.328125 0.765625zm15.6875 -18.796875l0 4.09375l3.15625 0l0 2.234375l-3.15625 0l0 10.484375q0 1.015625 0.421875 1.53125q0.421875 0.5 1.4375 0.5q0.5 0 1.375 -0.1875l0 2.34375q-1.140625 0.3125 -2.21875 0.3125q-1.9375 0 -2.921875 -1.171875q-0.984375 -1.171875 -0.984375 -3.328125l0 -10.484375l-3.078125 0l0 -2.234375l3.078125 0l0 -4.09375l2.890625 0zm16.96875 21.0q-0.25 -0.5 -0.40625 -1.78125q-2.015625 2.09375 -4.8125 2.09375q-2.5 0 -4.109375 -1.40625q-1.59375 -1.421875 -1.59375 -3.59375q0 -2.640625 2.0 -4.09375q2.015625 -1.46875 5.65625 -1.46875l2.8125 0l0 -1.328125q0 -1.515625 -0.90625 -2.40625q-0.90625 -0.90625 -2.671875 -0.90625q-1.546875 0 -2.59375 0.78125q-1.046875 0.78125 -1.046875 1.890625l-2.90625 0q0 -1.265625 0.890625 -2.4375q0.90625 -1.1875 2.4375 -1.875q1.546875 -0.6875 3.390625 -0.6875q2.921875 0 4.578125 1.46875q1.65625 1.453125 1.71875 4.015625l0 7.78125q0 2.328125 0.59375 3.703125l0 0.25l-3.03125 0zm-4.796875 -2.203125q1.359375 0 2.578125 -0.703125q1.21875 -0.703125 1.765625 -1.828125l0 -3.46875l-2.265625 0q-5.3125 0 -5.3125 3.109375q0 1.359375 0.90625 2.125q0.90625 0.765625 2.328125 0.765625zm26.078125 -6.0625q0 3.875 -1.78125 6.234375q-1.78125 2.34375 -4.78125 2.34375q-3.203125 0 -4.953125 -2.265625l-0.140625 1.953125l-2.65625 0l0 -24.0l2.890625 0l0 8.953125q1.75 -2.171875 4.828125 -2.171875q3.078125 0 4.828125 2.328125q1.765625 2.328125 1.765625 6.375l0 0.25zm-2.890625 -0.328125q0 -2.953125 -1.140625 -4.5625q-1.140625 -1.609375 -3.28125 -1.609375q-2.859375 0 -4.109375 2.65625l0 7.3125q1.328125 2.65625 4.140625 2.65625q2.078125 0 3.234375 -1.609375q1.15625 -1.609375 1.15625 -4.84375zm16.96875 8.59375q-0.25 -0.5 -0.40625 -1.78125q-2.015625 2.09375 -4.8125 2.09375q-2.5 0 -4.109375 -1.40625q-1.59375 -1.421875 -1.59375 -3.59375q0 -2.640625 2.0 -4.09375q2.015625 -1.46875 5.65625 -1.46875l2.8125 0l0 -1.328125q0 -1.515625 -0.90625 -2.40625q-0.90625 -0.90625 -2.671875 -0.90625q-1.546875 0 -2.59375 0.78125q-1.046875 0.78125 -1.046875 1.890625l-2.90625 0q0 -1.265625 0.890625 -2.4375q0.90625 -1.1875 2.4375 -1.875q1.546875 -0.6875 3.390625 -0.6875q2.921875 0 4.578125 1.46875q1.65625 1.453125 1.71875 4.015625l0 7.78125q0 2.328125 0.59375 3.703125l0 0.25l-3.03125 0zm-4.796875 -2.203125q1.359375 0 2.578125 -0.703125q1.21875 -0.703125 1.765625 -1.828125l0 -3.46875l-2.265625 0q-5.3125 0 -5.3125 3.109375q0 1.359375 0.90625 2.125q0.90625 0.765625 2.328125 0.765625zm21.609375 -2.28125q0 -1.171875 -0.890625 -1.8125q-0.875 -0.65625 -3.078125 -1.125q-2.1875 -0.46875 -3.484375 -1.125q-1.28125 -0.65625 -1.90625 -1.5625q-0.609375 -0.90625 -0.609375 -2.15625q0 -2.078125 1.75 -3.515625q1.765625 -1.4375 4.5 -1.4375q2.875 0 4.65625 1.484375q1.796875 1.484375 1.796875 3.796875l-2.90625 0q0 -1.1875 -1.015625 -2.046875q-1.0 -0.859375 -2.53125 -0.859375q-1.578125 0 -2.46875 0.6875q-0.890625 0.6875 -0.890625 1.796875q0 1.046875 0.828125 1.578125q0.828125 0.53125 2.984375 1.015625q2.171875 0.484375 3.515625 1.15625q1.34375 0.671875 1.984375 1.625q0.65625 0.9375 0.65625 2.296875q0 2.265625 -1.8125 3.640625q-1.8125 1.359375 -4.703125 1.359375q-2.03125 0 -3.59375 -0.71875q-1.5625 -0.71875 -2.453125 -2.0q-0.875 -1.296875 -0.875 -2.796875l2.890625 0q0.078125 1.453125 1.15625 2.3125q1.09375 0.84375 2.875 0.84375q1.640625 0 2.625 -0.65625q1.0 -0.671875 1.0 -1.78125zm13.671875 4.796875q-3.4375 0 -5.59375 -2.25q-2.15625 -2.265625 -2.15625 -6.046875l0 -0.53125q0 -2.515625 0.953125 -4.484375q0.96875 -1.984375 2.6875 -3.09375q1.734375 -1.125 3.75 -1.125q3.296875 0 5.125 2.171875q1.828125 2.171875 1.828125 6.21875l0 1.203125l-11.453125 0q0.0625 2.5 1.453125 4.046875q1.40625 1.53125 3.5625 1.53125q1.53125 0 2.59375 -0.625q1.0625 -0.625 1.859375 -1.65625l1.765625 1.375q-2.125 3.265625 -6.375 3.265625zm-0.359375 -15.15625q-1.75 0 -2.9375 1.28125q-1.1875 1.265625 -1.46875 3.5625l8.46875 0l0 -0.21875q-0.125 -2.203125 -1.1875 -3.40625q-1.0625 -1.21875 -2.875 -1.21875zm28.0625 10.359375q0 -1.171875 -0.890625 -1.8125q-0.875 -0.65625 -3.078125 -1.125q-2.1875 -0.46875 -3.484375 -1.125q-1.28125 -0.65625 -1.90625 -1.5625q-0.609375 -0.90625 -0.609375 -2.15625q0 -2.078125 1.75 -3.515625q1.765625 -1.4375 4.5 -1.4375q2.875 0 4.65625 1.484375q1.796875 1.484375 1.796875 3.796875l-2.90625 0q0 -1.1875 -1.015625 -2.046875q-1.0 -0.859375 -2.53125 -0.859375q-1.578125 0 -2.46875 0.6875q-0.890625 0.6875 -0.890625 1.796875q0 1.046875 0.828125 1.578125q0.828125 0.53125 2.984375 1.015625q2.171875 0.484375 3.515625 1.15625q1.34375 0.671875 1.984375 1.625q0.65625 0.9375 0.65625 2.296875q0 2.265625 -1.8125 3.640625q-1.8125 1.359375 -4.703125 1.359375q-2.03125 0 -3.59375 -0.71875q-1.5625 -0.71875 -2.453125 -2.0q-0.875 -1.296875 -0.875 -2.796875l2.890625 0q0.078125 1.453125 1.15625 2.3125q1.09375 0.84375 2.875 0.84375q1.640625 0 2.625 -0.65625q1.0 -0.671875 1.0 -1.78125zm9.796875 4.484375l-2.890625 0l0 -16.90625l2.890625 0l0 16.90625zm-3.125 -21.390625q0 -0.703125 0.421875 -1.1875q0.4375 -0.484375 1.28125 -0.484375q0.84375 0 1.28125 0.484375q0.4375 0.484375 0.4375 1.1875q0 0.703125 -0.4375 1.171875q-0.4375 0.46875 -1.28125 0.46875q-0.84375 0 -1.28125 -0.46875q-0.421875 -0.46875 -0.421875 -1.171875zm10.46875 4.484375l0.078125 1.875q1.859375 -2.1875 5.015625 -2.1875q3.546875 0 4.828125 2.71875q0.84375 -1.21875 2.1875 -1.96875q1.359375 -0.75 3.203125 -0.75q5.5625 0 5.65625 5.890625l0 11.328125l-2.890625 0l0 -11.15625q0 -1.8125 -0.828125 -2.703125q-0.828125 -0.90625 -2.78125 -0.90625q-1.609375 0 -2.671875 0.96875q-1.0625 0.953125 -1.234375 2.578125l0 11.21875l-2.90625 0l0 -11.078125q0 -3.6875 -3.609375 -3.6875q-2.84375 0 -3.890625 2.421875l0 12.34375l-2.890625 0l0 -16.90625l2.734375 0zm35.765625 15.234375q-1.6875 1.984375 -4.953125 1.984375q-2.703125 0 -4.125 -1.5625q-1.40625 -1.578125 -1.421875 -4.65625l0 -11.0l2.890625 0l0 10.921875q0 3.84375 3.125 3.84375q3.3125 0 4.40625 -2.46875l0 -12.296875l2.890625 0l0 16.90625l-2.75 0l-0.0625 -1.671875zm10.34375 1.671875l-2.890625 0l0 -24.0l2.890625 0l0 24.0zm15.0624695 0q-0.25 -0.5 -0.40625 -1.78125q-2.015625 2.09375 -4.8125 2.09375q-2.4999695 0 -4.1093445 -1.40625q-1.59375 -1.421875 -1.59375 -3.59375q0 -2.640625 2.0 -4.09375q2.0155945 -1.46875 5.6562195 -1.46875l2.8125 0l0 -1.328125q0 -1.515625 -0.90625 -2.40625q-0.90625 -0.90625 -2.671875 -0.90625q-1.546875 0 -2.59375 0.78125q-1.046875 0.78125 -1.046875 1.890625l-2.9062195 0q0 -1.265625 0.890625 -2.4375q0.90625 -1.1875 2.4374695 -1.875q1.546875 -0.6875 3.390625 -0.6875q2.921875 0 4.578125 1.46875q1.65625 1.453125 1.71875 4.015625l0 7.78125q0 2.328125 0.59375 3.703125l0 0.25l-3.03125 0zm-4.796875 -2.203125q1.359375 0 2.578125 -0.703125q1.21875 -0.703125 1.765625 -1.828125l0 -3.46875l-2.265625 0q-5.3124695 0 -5.3124695 3.109375q0 1.359375 0.9062195 2.125q0.90625 0.765625 2.328125 0.765625zm15.6875 -18.796875l0 4.09375l3.15625 0l0 2.234375l-3.15625 0l0 10.484375q0 1.015625 0.421875 1.53125q0.421875 0.5 1.4375 0.5q0.5 0 1.375 -0.1875l0 2.34375q-1.140625 0.3125 -2.21875 0.3125q-1.9375 0 -2.921875 -1.171875q-0.984375 -1.171875 -0.984375 -3.328125l0 -10.484375l-3.078125 0l0 -2.234375l3.078125 0l0 -4.09375l2.890625 0zm5.453125 12.390625q0 -2.484375 0.96875 -4.46875q0.984375 -1.984375 2.71875 -3.0625q1.75 -1.078125 3.984375 -1.078125q3.453125 0 5.578125 2.390625q2.140625 2.390625 2.140625 6.359375l0 0.203125q0 2.46875 -0.953125 4.4375q-0.9375 1.953125 -2.703125 3.046875q-1.75 1.09375 -4.03125 1.09375q-3.4375 0 -5.578125 -2.390625q-2.125 -2.390625 -2.125 -6.328125l0 -0.203125zm2.90625 0.34375q0 2.8125 1.296875 4.515625q1.3125 1.703125 3.5 1.703125q2.203125 0 3.5 -1.71875q1.296875 -1.734375 1.296875 -4.84375q0 -2.78125 -1.328125 -4.5q-1.3125 -1.734375 -3.5 -1.734375q-2.140625 0 -3.453125 1.703125q-1.3125 1.703125 -1.3125 4.875zm24.28125 -6.046875q-0.65625 -0.109375 -1.421875 -0.109375q-2.84375 0 -3.859375 2.421875l0 12.0l-2.890625 0l0 -16.90625l2.8125 0l0.046875 1.953125q1.421875 -2.265625 4.03125 -2.265625q0.84375 0 1.28125 0.21875l0 2.6875zm3.109375 -2.03125l-1.640625 -1.125q1.453125 -2.03125 1.5 -4.28125l0 -2.25l2.859375 0l0 2.03125q-0.015625 1.5625 -0.78125 3.125q-0.75 1.546875 -1.9375 2.5zm5.0 0l-1.640625 -1.125q1.453125 -2.03125 1.5 -4.28125l0 -2.25l2.859375 0l0 2.03125q-0.015625 1.5625 -0.78125 3.125q-0.75 1.546875 -1.9375 2.5z" fill-rule="nonzero"/><path fill="#000000" d="m150.4482 311.5801q0 -3.53125 0.9375 -6.78125q0.953125 -3.25 2.828125 -5.90625q1.875 -2.65625 3.890625 -3.75l0.59375 1.90625q-2.28125 1.75 -3.75 5.34375q-1.453125 3.59375 -1.59375 8.046875l-0.015625 1.328125q0 6.03125 2.203125 10.46875q1.328125 2.65625 3.15625 4.15625l-0.59375 1.765625q-2.078125 -1.15625 -3.96875 -3.875q-3.6875 -5.3125 -3.6875 -12.703125zm28.296875 6.25q-1.15625 1.65625 -3.234375 2.484375q-2.0625 0.8125 -4.8125 0.8125q-2.78125 0 -4.9375 -1.296875q-2.15625 -1.3125 -3.34375 -3.71875q-1.171875 -2.40625 -1.203125 -5.578125l0 -1.984375q0 -5.140625 2.390625 -7.96875q2.40625 -2.828125 6.75 -2.828125q3.5625 0 5.734375 1.828125q2.171875 1.8125 2.65625 5.15625l-3.0 0q-0.84375 -4.515625 -5.375 -4.515625q-3.015625 0 -4.578125 2.125q-1.546875 2.109375 -1.5625 6.125l0 1.859375q0 3.828125 1.75 6.09375q1.75 2.25 4.734375 2.25q1.6875 0 2.953125 -0.375q1.265625 -0.375 2.09375 -1.265625l0 -5.109375l-5.265625 0l0 -2.4375l8.25 0l0 8.34375zm3.78125 -5.625q0 -2.484375 0.96875 -4.46875q0.984375 -1.984375 2.71875 -3.0625q1.75 -1.078125 3.984375 -1.078125q3.453125 0 5.578125 2.390625q2.140625 2.390625 2.140625 6.359375l0 0.203125q0 2.46875 -0.953125 4.4375q-0.9375 1.953125 -2.703125 3.046875q-1.75 1.09375 -4.03125 1.09375q-3.4375 0 -5.578125 -2.390625q-2.125 -2.390625 -2.125 -6.328125l0 -0.203125zm2.90625 0.34375q0 2.8125 1.296875 4.515625q1.3125 1.703125 3.5 1.703125q2.203125 0 3.5 -1.71875q1.296875 -1.734375 1.296875 -4.84375q0 -2.78125 -1.328125 -4.5q-1.3125 -1.734375 -3.5 -1.734375q-2.140625 0 -3.453125 1.703125q-1.3125 1.703125 -1.3125 4.875zm15.34375 -0.34375q0 -2.484375 0.96875 -4.46875q0.984375 -1.984375 2.71875 -3.0625q1.75 -1.078125 3.984375 -1.078125q3.453125 0 5.578125 2.390625q2.140625 2.390625 2.140625 6.359375l0 0.203125q0 2.46875 -0.953125 4.4375q-0.9375 1.953125 -2.703125 3.046875q-1.75 1.09375 -4.03125 1.09375q-3.4375 0 -5.578125 -2.390625q-2.125 -2.390625 -2.125 -6.328125l0 -0.203125zm2.90625 0.34375q0 2.8125 1.296875 4.515625q1.3125 1.703125 3.5 1.703125q2.203125 0 3.5 -1.71875q1.296875 -1.734375 1.296875 -4.84375q0 -2.78125 -1.328125 -4.5q-1.3125 -1.734375 -3.5 -1.734375q-2.140625 0 -3.453125 1.703125q-1.3125 1.703125 -1.3125 4.875zm15.421875 -0.328125q0 -3.953125 1.828125 -6.28125q1.828125 -2.34375 4.84375 -2.34375q3.09375 0 4.828125 2.1875l0.140625 -1.875l2.640625 0l0 16.5q0 3.28125 -1.953125 5.171875q-1.9375 1.890625 -5.21875 1.890625q-1.828125 0 -3.578125 -0.78125q-1.75 -0.78125 -2.671875 -2.140625l1.5 -1.734375q1.859375 2.296875 4.546875 2.296875q2.109375 0 3.28125 -1.1875q1.1875 -1.1875 1.1875 -3.34375l0 -1.453125q-1.734375 2.0 -4.734375 2.0q-2.96875 0 -4.8125 -2.390625q-1.828125 -2.390625 -1.828125 -6.515625zm2.90625 0.328125q0 2.859375 1.171875 4.5q1.171875 1.625 3.28125 1.625q2.734375 0 4.015625 -2.484375l0 -7.71875q-1.328125 -2.421875 -3.984375 -2.421875q-2.109375 0 -3.296875 1.640625q-1.1875 1.640625 -1.1875 4.859375zm18.875 8.265625l-2.890625 0l0 -24.0l2.890625 0l0 24.0zm11.640625 0.3125q-3.4375 0 -5.59375 -2.25q-2.15625 -2.265625 -2.15625 -6.046875l0 -0.53125q0 -2.515625 0.953125 -4.484375q0.96875 -1.984375 2.6875 -3.09375q1.734375 -1.125 3.75 -1.125q3.296875 0 5.1250153 2.171875q1.828125 2.171875 1.828125 6.21875l0 1.203125l-11.45314 0q0.0625 2.5 1.453125 4.046875q1.40625 1.53125 3.5625 1.53125q1.53125 0 2.59375 -0.625q1.0625153 -0.625 1.8593903 -1.65625l1.765625 1.375q-2.125 3.265625 -6.3750153 3.265625zm-0.359375 -15.15625q-1.75 0 -2.9375 1.28125q-1.1875 1.265625 -1.46875 3.5625l8.468765 0l0 -0.21875q-0.125 -2.203125 -1.1875153 -3.40625q-1.0625 -1.21875 -2.875 -1.21875zm31.23439 8.90625l-9.53125 0l-2.140625 5.9375l-3.09375 0l8.6875 -22.75l2.625 0l8.703125 22.75l-3.078125 0l-2.171875 -5.9375zm-8.625 -2.46875l7.734375 0l-3.875 -10.640625l-3.859375 10.640625zm30.765625 0.140625q0 3.859375 -1.765625 6.21875q-1.765625 2.359375 -4.78125 2.359375q-3.078125 0 -4.84375 -1.953125l0 8.140625l-2.890625 0l0 -23.40625l2.640625 0l0.140625 1.875q1.765625 -2.1875 4.90625 -2.1875q3.046875 0 4.8125 2.296875q1.78125 2.296875 1.78125 6.390625l0 0.265625zm-2.890625 -0.328125q0 -2.859375 -1.21875 -4.515625q-1.21875 -1.65625 -3.34375 -1.65625q-2.625 0 -3.9375 2.328125l0 8.078125q1.296875 2.3125 3.96875 2.3125q2.078125 0 3.296875 -1.640625q1.234375 -1.65625 1.234375 -4.90625zm20.84375 0.328125q0 3.859375 -1.765625 6.21875q-1.765625 2.359375 -4.78125 2.359375q-3.078125 0 -4.84375 -1.953125l0 8.140625l-2.890625 0l0 -23.40625l2.640625 0l0.140625 1.875q1.765625 -2.1875 4.90625 -2.1875q3.046875 0 4.8125 2.296875q1.78125 2.296875 1.78125 6.390625l0 0.265625zm-2.890625 -0.328125q0 -2.859375 -1.21875 -4.515625q-1.21875 -1.65625 -3.34375 -1.65625q-2.625 0 -3.9375 2.328125l0 8.078125q1.296875 2.3125 3.96875 2.3125q2.078125 0 3.296875 -1.640625q1.234375 -1.65625 1.234375 -4.90625zm16.40625 4.109375q0 -1.171875 -0.890625 -1.8125q-0.875 -0.65625 -3.078125 -1.125q-2.1875 -0.46875 -3.484375 -1.125q-1.28125 -0.65625 -1.90625 -1.5625q-0.609375 -0.90625 -0.609375 -2.15625q0 -2.078125 1.75 -3.515625q1.765625 -1.4375 4.5 -1.4375q2.875 0 4.65625 1.484375q1.796875 1.484375 1.796875 3.796875l-2.90625 0q0 -1.1875 -1.015625 -2.046875q-1.0 -0.859375 -2.53125 -0.859375q-1.578125 0 -2.46875 0.6875q-0.890625 0.6875 -0.890625 1.796875q0 1.046875 0.828125 1.578125q0.828125 0.53125 2.984375 1.015625q2.171875 0.484375 3.515625 1.15625q1.34375 0.671875 1.984375 1.625q0.65625 0.9375 0.65625 2.296875q0 2.265625 -1.8125 3.640625q-1.8125 1.359375 -4.703125 1.359375q-2.03125 0 -3.59375 -0.71875q-1.5625 -0.71875 -2.453125 -2.0q-0.875 -1.296875 -0.875 -2.796875l2.890625 0q0.078125 1.453125 1.15625 2.3125q1.09375 0.84375 2.875 0.84375q1.640625 0 2.625 -0.65625q1.0 -0.671875 1.0 -1.78125zm21.734375 -5.65625q-3.859375 -1.109375 -5.625 -2.71875q-1.75 -1.625 -1.75 -4.0q0 -2.6875 2.140625 -4.4375q2.15625 -1.765625 5.59375 -1.765625q2.34375 0 4.171875 0.90625q1.84375 0.90625 2.84375 2.5q1.015625 1.59375 1.015625 3.484375l-3.015625 0q0 -2.0625 -1.3125 -3.234375q-1.3125 -1.1875 -3.703125 -1.1875q-2.21875 0 -3.46875 0.984375q-1.234375 0.96875 -1.234375 2.703125q0 1.390625 1.171875 2.359375q1.1875 0.953125 4.015625 1.75q2.84375 0.796875 4.4375 1.765625q1.609375 0.953125 2.375 2.234375q0.78125 1.28125 0.78125 3.015625q0 2.765625 -2.15625 4.4375q-2.15625 1.65625 -5.765625 1.65625q-2.34375 0 -4.375 -0.890625q-2.03125 -0.90625 -3.140625 -2.46875q-1.09375 -1.5625 -1.09375 -3.546875l3.015625 0q0 2.0625 1.515625 3.265625q1.53125 1.1875 4.078125 1.1875q2.375 0 3.640625 -0.96875q1.265625 -0.96875 1.265625 -2.640625q0 -1.671875 -1.171875 -2.578125q-1.171875 -0.921875 -4.25 -1.8125zm18.609375 8.09375q1.546875 0 2.703125 -0.9375q1.15625 -0.9375 1.28125 -2.34375l2.734375 0q-0.078125 1.453125 -1.0 2.765625q-0.921875 1.3125 -2.46875 2.09375q-1.53125 0.78125 -3.25 0.78125q-3.453125 0 -5.5 -2.296875q-2.03125 -2.3125 -2.03125 -6.3125l0 -0.484375q0 -2.46875 0.90625 -4.390625q0.90625 -1.921875 2.59375 -2.984375q1.703125 -1.0625 4.015625 -1.0625q2.84375 0 4.71875 1.703125q1.890625 1.703125 2.015625 4.421875l-2.734375 0q-0.125 -1.640625 -1.25 -2.6875q-1.109375 -1.0625 -2.75 -1.0625q-2.203125 0 -3.421875 1.59375q-1.203125 1.578125 -1.203125 4.578125l0 0.546875q0 2.921875 1.203125 4.5q1.203125 1.578125 3.4375 1.578125zm18.140625 -12.265625q-0.65625 -0.109375 -1.421875 -0.109375q-2.84375 0 -3.859375 2.421875l0 12.0l-2.890625 0l0 -16.90625l2.8125 0l0.046875 1.953125q1.421875 -2.265625 4.03125 -2.265625q0.84375 0 1.28125 0.21875l0 2.6875zm5.796875 14.3125l-2.890625 0l0 -16.90625l2.890625 0l0 16.90625zm-3.125 -21.390625q0 -0.703125 0.421875 -1.1875q0.4375 -0.484375 1.28125 -0.484375q0.84375 0 1.28125 0.484375q0.4375 0.484375 0.4375 1.1875q0 0.703125 -0.4375 1.171875q-0.4375 0.46875 -1.28125 0.46875q-0.84375 0 -1.28125 -0.46875q-0.421875 -0.46875 -0.421875 -1.171875zm22.03125 13.125q0 3.859375 -1.765625 6.21875q-1.765625 2.359375 -4.78125 2.359375q-3.078125 0 -4.84375 -1.953125l0 8.140625l-2.890625 0l0 -23.40625l2.640625 0l0.140625 1.875q1.765625 -2.1875 4.90625 -2.1875q3.046875 0 4.8125 2.296875q1.78125 2.296875 1.78125 6.390625l0 0.265625zm-2.890625 -0.328125q0 -2.859375 -1.21875 -4.515625q-1.21875 -1.65625 -3.34375 -1.65625q-2.625 0 -3.9375 2.328125l0 8.078125q1.296875 2.3125 3.96875 2.3125q2.078125 0 3.296875 -1.640625q1.234375 -1.65625 1.234375 -4.90625zm10.484375 -12.40625l0 4.09375l3.15625 0l0 2.234375l-3.15625 0l0 10.484375q0 1.015625 0.421875 1.53125q0.421875 0.5 1.4375 0.5q0.5 0 1.375 -0.1875l0 2.34375q-1.140625 0.3125 -2.21875 0.3125q-1.9375 0 -2.921875 -1.171875q-0.984375 -1.171875 -0.984375 -3.328125l0 -10.484375l-3.078125 0l0 -2.234375l3.078125 0l0 -4.09375l2.890625 0zm13.203125 11.921875q0 3.484375 -0.921875 6.6875q-0.90625 3.1875 -2.796875 5.890625q-1.875 2.703125 -3.9375 3.84375l-0.609375 -1.765625q2.40625 -1.84375 3.859375 -5.71875q1.46875 -3.890625 1.5 -8.625l0 -0.5q0 -3.28125 -0.6875 -6.09375q-0.6875 -2.828125 -1.921875 -5.0625q-1.21875 -2.234375 -2.75 -3.484375l0.609375 -1.765625q2.0625 1.140625 3.921875 3.8125q1.875 2.671875 2.796875 5.890625q0.9375 3.21875 0.9375 6.890625z" fill-rule="nonzero"/><path fill="#6fa8dc" d="m54.362206 355.32285l704.2835 0l0 130.4567l-704.2835 0z" fill-rule="evenodd"/><path fill="#000000" d="m72.705956 422.13055q-3.859375 -1.109375 -5.625 -2.71875q-1.75 -1.625 -1.75 -4.0q0 -2.6875 2.140625 -4.4375q2.15625 -1.765625 5.59375 -1.765625q2.34375 0 4.171875 0.90625q1.84375 0.90625 2.84375 2.5q1.015625 1.59375 1.015625 3.484375l-3.015625 0q0 -2.0625 -1.3125 -3.234375q-1.3125 -1.1875 -3.703125 -1.1875q-2.21875 0 -3.46875 0.984375q-1.234375 0.96875 -1.234375 2.703125q0 1.390625 1.171875 2.359375q1.1875 0.953125 4.015625 1.75q2.84375 0.796875 4.4375 1.765625q1.609375 0.953125 2.375 2.234375q0.78125 1.28125 0.78125 3.015625q0 2.765625 -2.15625 4.4375q-2.15625 1.65625 -5.765625 1.65625q-2.34375 0 -4.375 -0.890625q-2.03125 -0.90625 -3.140625 -2.46875q-1.09375 -1.5625 -1.09375 -3.546875l3.015625 0q0 2.0625 1.515625 3.265625q1.53125 1.1875 4.078125 1.1875q2.375 0 3.640625 -0.96875q1.265625 -0.96875 1.265625 -2.640625q0 -1.671875 -1.171875 -2.578125q-1.171875 -0.921875 -4.25 -1.8125zm26.109375 1.875q0 3.859375 -1.765625 6.21875q-1.765625 2.359375 -4.78125 2.359375q-3.078125 0 -4.84375 -1.953125l0 8.140625l-2.890625 0l0 -23.40625l2.640625 0l0.140625 1.875q1.765625 -2.1875 4.90625 -2.1875q3.046875 0 4.8125 2.296875q1.78125 2.296875 1.78125 6.390625l0 0.265625zm-2.890625 -0.328125q0 -2.859375 -1.21875 -4.515625q-1.21875 -1.65625 -3.34375 -1.65625q-2.625 0 -3.9375 2.328125l0 8.078125q1.296875 2.3125 3.96875 2.3125q2.078125 0 3.296875 -1.640625q1.234375 -1.65625 1.234375 -4.90625zm14.734375 -5.71875q-0.65625 -0.109375 -1.421875 -0.109375q-2.84375 0 -3.859375 2.421875l0 12.0l-2.890625 0l0 -16.90625l2.8125 0l0.046875 1.953125q1.421875 -2.265625 4.03125 -2.265625q0.84375 0 1.28125 0.21875l0 2.6875zm9.375 14.625q-3.4375 0 -5.59375 -2.25q-2.15625 -2.265625 -2.15625 -6.046875l0 -0.53125q0 -2.515625 0.953125 -4.484375q0.96875 -1.984375 2.6875 -3.09375q1.734375 -1.125 3.75 -1.125q3.296875 0 5.125 2.171875q1.828125 2.171875 1.828125 6.21875l0 1.203125l-11.453125 0q0.0625 2.5 1.453125 4.046875q1.40625 1.53125 3.5625 1.53125q1.53125 0 2.59375 -0.625q1.0625 -0.625 1.859375 -1.65625l1.765625 1.375q-2.125 3.265625 -6.375 3.265625zm-0.359375 -15.15625q-1.75 0 -2.9375 1.28125q-1.1875 1.265625 -1.46875 3.5625l8.46875 0l0 -0.21875q-0.125 -2.203125 -1.1875 -3.40625q-1.0625 -1.21875 -2.875 -1.21875zm20.734367 14.84375q-0.25 -0.5 -0.40625 -1.78125q-2.015625 2.09375 -4.8125 2.09375q-2.5 0 -4.109375 -1.40625q-1.59375 -1.421875 -1.59375 -3.59375q0 -2.640625 2.0 -4.09375q2.015625 -1.46875 5.65625 -1.46875l2.8125 0l0 -1.328125q0 -1.515625 -0.90625 -2.40625q-0.90625 -0.90625 -2.671875 -0.90625q-1.546875 0 -2.59375 0.78125q-1.046875 0.78125 -1.046875 1.890625l-2.90625 0q0 -1.265625 0.890625 -2.4375q0.90625 -1.1875 2.4375 -1.875q1.546875 -0.6875 3.390625 -0.6875q2.921875 0 4.578125 1.46875q1.65625 1.453125 1.71875 4.015625l0 7.78125q0 2.328125 0.59375 3.703125l0 0.25l-3.03125 0zm-4.796875 -2.203125q1.359375 0 2.578125 -0.703125q1.21875 -0.703125 1.765625 -1.828125l0 -3.46875l-2.265625 0q-5.3125 0 -5.3125 3.109375q0 1.359375 0.90625 2.125q0.90625 0.765625 2.328125 0.765625zm11.0625 -6.390625q0 -3.890625 1.84375 -6.25q1.84375 -2.375 4.828125 -2.375q2.96875 0 4.703125 2.03125l0 -8.8125l2.890625 0l0 24.0l-2.65625 0l-0.140625 -1.8125q-1.734375 2.125 -4.828125 2.125q-2.9375 0 -4.796875 -2.40625q-1.84375 -2.40625 -1.84375 -6.28125l0 -0.21875zm2.890625 0.328125q0 2.875 1.1875 4.5q1.1875 1.625 3.28125 1.625q2.75 0 4.015625 -2.46875l0 -7.765625q-1.296875 -2.390625 -3.984375 -2.390625q-2.125 0 -3.3125 1.640625q-1.1875 1.640625 -1.1875 4.859375zm25.703125 3.78125q0 -1.171875 -0.890625 -1.8125q-0.875 -0.65625 -3.078125 -1.125q-2.1875 -0.46875 -3.484375 -1.125q-1.28125 -0.65625 -1.90625 -1.5625q-0.609375 -0.90625 -0.609375 -2.15625q0 -2.078125 1.75 -3.515625q1.765625 -1.4375 4.5 -1.4375q2.875 0 4.65625 1.484375q1.796875 1.484375 1.796875 3.796875l-2.90625 0q0 -1.1875 -1.015625 -2.046875q-1.0 -0.859375 -2.53125 -0.859375q-1.578125 0 -2.46875 0.6875q-0.890625 0.6875 -0.890625 1.796875q0 1.046875 0.828125 1.578125q0.828125 0.53125 2.984375 1.015625q2.171875 0.484375 3.515625 1.15625q1.34375 0.671875 1.984375 1.625q0.65625 0.9375 0.65625 2.296875q0 2.265625 -1.8125 3.640625q-1.8125 1.359375 -4.703125 1.359375q-2.03125 0 -3.59375 -0.71875q-1.5625 -0.71875 -2.453125 -2.0q-0.875 -1.296875 -0.875 -2.796875l2.890625 0q0.078125 1.453125 1.15625 2.3125q1.09375 0.84375 2.875 0.84375q1.640625 0 2.625 -0.65625q1.0 -0.671875 1.0 -1.78125zm9.546875 -10.375q1.921875 -2.359375 5.0 -2.359375q5.359375 0 5.40625 6.046875l0 11.171875l-2.890625 0l0 -11.1875q-0.015625 -1.828125 -0.84375 -2.703125q-0.8125 -0.875 -2.546875 -0.875q-1.40625 0 -2.46875 0.75q-1.0625 0.75 -1.65625 1.96875l0 12.046875l-2.890625 0l0 -24.0l2.890625 0l0 9.140625zm21.75 15.171875q-3.4375 0 -5.59375 -2.25q-2.15625 -2.265625 -2.15625 -6.046875l0 -0.53125q0 -2.515625 0.953125 -4.484375q0.96875 -1.984375 2.6875 -3.09375q1.734375 -1.125 3.75 -1.125q3.296875 0 5.125 2.171875q1.828125 2.171875 1.828125 6.21875l0 1.203125l-11.453125 0q0.0625 2.5 1.453125 4.046875q1.40625 1.53125 3.5625 1.53125q1.53125 0 2.59375 -0.625q1.0625 -0.625 1.859375 -1.65625l1.765625 1.375q-2.125 3.265625 -6.375 3.265625zm-0.359375 -15.15625q-1.75 0 -2.9375 1.28125q-1.1875 1.265625 -1.46875 3.5625l8.46875 0l0 -0.21875q-0.125 -2.203125 -1.1875 -3.40625q-1.0625 -1.21875 -2.875 -1.21875zm17.3125 15.15625q-3.4375 0 -5.59375 -2.25q-2.15625 -2.265625 -2.15625 -6.046875l0 -0.53125q0 -2.515625 0.953125 -4.484375q0.96875 -1.984375 2.6875 -3.09375q1.734375 -1.125 3.75 -1.125q3.296875 0 5.125 2.171875q1.828125 2.171875 1.828125 6.21875l0 1.203125l-11.453125 0q0.0625 2.5 1.453125 4.046875q1.40625 1.53125 3.5625 1.53125q1.53125 0 2.59375 -0.625q1.0625 -0.625 1.859375 -1.65625l1.765625 1.375q-2.125 3.265625 -6.375 3.265625zm-0.359375 -15.15625q-1.75 0 -2.9375 1.28125q-1.1875 1.265625 -1.46875 3.5625l8.46875 0l0 -0.21875q-0.125 -2.203125 -1.1875 -3.40625q-1.0625 -1.21875 -2.875 -1.21875zm14.21875 -6.15625l0 4.09375l3.15625 0l0 2.234375l-3.15625 0l0 10.484375q0 1.015625 0.421875 1.53125q0.421875 0.5 1.4375 0.5q0.5 0 1.375 -0.1875l0 2.34375q-1.140625 0.3125 -2.21875 0.3125q-1.9375 0 -2.921875 -1.171875q-0.984375 -1.171875 -0.984375 -3.328125l0 -10.484375l-3.078125 0l0 -2.234375l3.078125 0l0 -4.09375l2.890625 0zm14.34375 11.765625q0 -3.53125 0.9375 -6.78125q0.953125 -3.25 2.828125 -5.90625q1.8750153 -2.65625 3.8906403 -3.75l0.59375 1.90625q-2.28125 1.75 -3.75 5.34375q-1.4531403 3.59375 -1.5937653 8.046875l-0.015625 1.328125q0 6.03125 2.2031403 10.46875q1.328125 2.65625 3.15625 4.15625l-0.59375 1.765625q-2.078125 -1.15625 -3.9687653 -3.875q-3.6875 -5.3125 -3.6875 -12.703125zm28.29689 6.25q-1.15625 1.65625 -3.234375 2.484375q-2.0625 0.8125 -4.8125 0.8125q-2.78125 0 -4.9375 -1.296875q-2.15625 -1.3125 -3.34375 -3.71875q-1.171875 -2.40625 -1.203125 -5.578125l0 -1.984375q0 -5.140625 2.390625 -7.96875q2.40625 -2.828125 6.75 -2.828125q3.5625 0 5.734375 1.828125q2.171875 1.8125 2.65625 5.15625l-3.0 0q-0.84375 -4.515625 -5.375 -4.515625q-3.015625 0 -4.578125 2.125q-1.546875 2.109375 -1.5625 6.125l0 1.859375q0 3.828125 1.75 6.09375q1.75 2.25 4.734375 2.25q1.6875 0 2.953125 -0.375q1.265625 -0.375 2.09375 -1.265625l0 -5.109375l-5.265625 0l0 -2.4375l8.25 0l0 8.34375zm3.78125 -5.625q0 -2.484375 0.96875 -4.46875q0.984375 -1.984375 2.71875 -3.0625q1.75 -1.078125 3.984375 -1.078125q3.453125 0 5.578125 2.390625q2.140625 2.390625 2.140625 6.359375l0 0.203125q0 2.46875 -0.953125 4.4375q-0.9375 1.953125 -2.703125 3.046875q-1.75 1.09375 -4.03125 1.09375q-3.4375 0 -5.578125 -2.390625q-2.125 -2.390625 -2.125 -6.328125l0 -0.203125zm2.90625 0.34375q0 2.8125 1.296875 4.515625q1.3125 1.703125 3.5 1.703125q2.203125 0 3.5 -1.71875q1.296875 -1.734375 1.296875 -4.84375q0 -2.78125 -1.328125 -4.5q-1.3125 -1.734375 -3.5 -1.734375q-2.140625 0 -3.453125 1.703125q-1.3125 1.703125 -1.3125 4.875zm15.34375 -0.34375q0 -2.484375 0.96875 -4.46875q0.984375 -1.984375 2.71875 -3.0625q1.75 -1.078125 3.984375 -1.078125q3.453125 0 5.578125 2.390625q2.140625 2.390625 2.140625 6.359375l0 0.203125q0 2.46875 -0.953125 4.4375q-0.9375 1.953125 -2.703125 3.046875q-1.75 1.09375 -4.03125 1.09375q-3.4375 0 -5.578125 -2.390625q-2.125 -2.390625 -2.125 -6.328125l0 -0.203125zm2.90625 0.34375q0 2.8125 1.296875 4.515625q1.3125 1.703125 3.5 1.703125q2.203125 0 3.5 -1.71875q1.296875 -1.734375 1.296875 -4.84375q0 -2.78125 -1.328125 -4.5q-1.3125 -1.734375 -3.5 -1.734375q-2.140625 0 -3.453125 1.703125q-1.3125 1.703125 -1.3125 4.875zm15.421875 -0.328125q0 -3.953125 1.828125 -6.28125q1.828125 -2.34375 4.84375 -2.34375q3.09375 0 4.828125 2.1875l0.140625 -1.875l2.640625 0l0 16.5q0 3.28125 -1.953125 5.171875q-1.9375 1.890625 -5.21875 1.890625q-1.828125 0 -3.578125 -0.78125q-1.75 -0.78125 -2.671875 -2.140625l1.5 -1.734375q1.859375 2.296875 4.546875 2.296875q2.109375 0 3.28125 -1.1875q1.1875 -1.1875 1.1875 -3.34375l0 -1.453125q-1.734375 2.0 -4.734375 2.0q-2.96875 0 -4.8125 -2.390625q-1.828125 -2.390625 -1.828125 -6.515625zm2.90625 0.328125q0 2.859375 1.171875 4.5q1.171875 1.625 3.28125 1.625q2.734375 0 4.015625 -2.484375l0 -7.71875q-1.328125 -2.421875 -3.984375 -2.421875q-2.109375 0 -3.296875 1.640625q-1.1875 1.640625 -1.1875 4.859375zm18.875 8.265625l-2.890625 0l0 -24.0l2.890625 0l0 24.0zm11.640625 0.3125q-3.4375 0 -5.59375 -2.25q-2.15625 -2.265625 -2.15625 -6.046875l0 -0.53125q0 -2.515625 0.953125 -4.484375q0.96875 -1.984375 2.6875 -3.09375q1.734375 -1.125 3.75 -1.125q3.296875 0 5.125 2.171875q1.828125 2.171875 1.828125 6.21875l0 1.203125l-11.453125 0q0.0625 2.5 1.453125 4.046875q1.40625 1.53125 3.5625 1.53125q1.53125 0 2.59375 -0.625q1.0625 -0.625 1.859375 -1.65625l1.765625 1.375q-2.125 3.265625 -6.375 3.265625zm-0.359375 -15.15625q-1.75 0 -2.9375 1.28125q-1.1875 1.265625 -1.46875 3.5625l8.46875 0l0 -0.21875q-0.125 -2.203125 -1.1875 -3.40625q-1.0625 -1.21875 -2.875 -1.21875zm25.375 4.703125q-3.859375 -1.109375 -5.625 -2.71875q-1.75 -1.625 -1.75 -4.0q0 -2.6875 2.140625 -4.4375q2.15625 -1.765625 5.59375 -1.765625q2.34375 0 4.171875 0.90625q1.84375 0.90625 2.84375 2.5q1.015625 1.59375 1.015625 3.484375l-3.015625 0q0 -2.0625 -1.3125 -3.234375q-1.3125 -1.1875 -3.703125 -1.1875q-2.21875 0 -3.46875 0.984375q-1.234375 0.96875 -1.234375 2.703125q0 1.390625 1.171875 2.359375q1.1875 0.953125 4.015625 1.75q2.84375 0.796875 4.4375 1.765625q1.609375 0.953125 2.375 2.234375q0.78125 1.28125 0.78125 3.015625q0 2.765625 -2.15625 4.4375q-2.15625 1.65625 -5.765625 1.65625q-2.34375 0 -4.375 -0.890625q-2.03125 -0.90625 -3.140625 -2.46875q-1.09375 -1.5625 -1.09375 -3.546875l3.015625 0q0 2.0625 1.515625 3.265625q1.53125 1.1875 4.078125 1.1875q2.375 0 3.640625 -0.96875q1.265625 -0.96875 1.265625 -2.640625q0 -1.671875 -1.171875 -2.578125q-1.171875 -0.921875 -4.25 -1.8125zm14.71875 -4.71875q1.921875 -2.359375 5.0 -2.359375q5.359375 0 5.40625 6.046875l0 11.171875l-2.890625 0l0 -11.1875q-0.015625 -1.828125 -0.84375 -2.703125q-0.8125 -0.875 -2.546875 -0.875q-1.40625 0 -2.46875 0.75q-1.0625 0.75 -1.65625 1.96875l0 12.046875l-2.890625 0l0 -24.0l2.890625 0l0 9.140625zm21.75 15.171875q-3.4375 0 -5.59375 -2.25q-2.15625 -2.265625 -2.15625 -6.046875l0 -0.53125q0 -2.515625 0.953125 -4.484375q0.96875 -1.984375 2.6875 -3.09375q1.734375 -1.125 3.75 -1.125q3.296875 0 5.125 2.171875q1.828125 2.171875 1.828125 6.21875l0 1.203125l-11.453125 0q0.0625 2.5 1.453125 4.046875q1.40625 1.53125 3.5625 1.53125q1.53125 0 2.59375 -0.625q1.0625 -0.625 1.859375 -1.65625l1.765625 1.375q-2.125 3.265625 -6.375 3.265625zm-0.359375 -15.15625q-1.75 0 -2.9375 1.28125q-1.1875 1.265625 -1.46875 3.5625l8.46875 0l0 -0.21875q-0.125 -2.203125 -1.1875 -3.40625q-1.0625 -1.21875 -2.875 -1.21875zm17.3125 15.15625q-3.4375 0 -5.59375 -2.25q-2.15625 -2.265625 -2.15625 -6.046875l0 -0.53125q0 -2.515625 0.953125 -4.484375q0.96875 -1.984375 2.6875 -3.09375q1.734375 -1.125 3.75 -1.125q3.296875 0 5.125 2.171875q1.828125 2.171875 1.828125 6.21875l0 1.203125l-11.453125 0q0.0625 2.5 1.453125 4.046875q1.40625 1.53125 3.5625 1.53125q1.53125 0 2.59375 -0.625q1.0625 -0.625 1.859375 -1.65625l1.765625 1.375q-2.125 3.265625 -6.375 3.265625zm-0.359375 -15.15625q-1.75 0 -2.9375 1.28125q-1.1875 1.265625 -1.46875 3.5625l8.46875 0l0 -0.21875q-0.125 -2.203125 -1.1875 -3.40625q-1.0625 -1.21875 -2.875 -1.21875zm14.21875 -6.15625l0 4.09375l3.15625 0l0 2.234375l-3.15625 0l0 10.484375q0 1.015625 0.421875 1.53125q0.421875 0.5 1.4375 0.5q0.5 0 1.375 -0.1875l0 2.34375q-1.140625 0.3125 -2.21875 0.3125q-1.9375 0 -2.921875 -1.171875q-0.984375 -1.171875 -0.984375 -3.328125l0 -10.484375l-3.078125 0l0 -2.234375l3.078125 0l0 -4.09375l2.890625 0zm16.375 16.515625q0 -1.171875 -0.890625 -1.8125q-0.875 -0.65625 -3.078125 -1.125q-2.1875 -0.46875 -3.484375 -1.125q-1.28125 -0.65625 -1.90625 -1.5625q-0.609375 -0.90625 -0.609375 -2.15625q0 -2.078125 1.75 -3.515625q1.765625 -1.4375 4.5 -1.4375q2.875 0 4.65625 1.484375q1.796875 1.484375 1.796875 3.796875l-2.90625 0q0 -1.1875 -1.015625 -2.046875q-1.0 -0.859375 -2.53125 -0.859375q-1.578125 0 -2.46875 0.6875q-0.890625 0.6875 -0.890625 1.796875q0 1.046875 0.828125 1.578125q0.828125 0.53125 2.984375 1.015625q2.171875 0.484375 3.515625 1.15625q1.34375 0.671875 1.984375 1.625q0.65625 0.9375 0.65625 2.296875q0 2.265625 -1.8125 3.640625q-1.8125 1.359375 -4.703125 1.359375q-2.03125 0 -3.59375 -0.71875q-1.5625 -0.71875 -2.453125 -2.0q-0.875 -1.296875 -0.875 -2.796875l2.890625 0q0.078125 1.453125 1.15625 2.3125q1.09375 0.84375 2.875 0.84375q1.640625 0 2.625 -0.65625q1.0 -0.671875 1.0 -1.78125zm13.328125 -4.59375q0 3.484375 -0.921875 6.6875q-0.90625 3.1875 -2.796875 5.890625q-1.875 2.703125 -3.9375 3.84375l-0.609375 -1.765625q2.40625 -1.84375 3.859375 -5.71875q1.46875 -3.890625 1.5 -8.625l0 -0.5q0 -3.28125 -0.6875 -6.09375q-0.6875 -2.828125 -1.921875 -5.0625q-1.21875 -2.234375 -2.75 -3.484375l0.609375 -1.765625q2.0625 1.140625 3.921875 3.8125q1.875 2.671875 2.796875 5.890625q0.9375 3.21875 0.9375 6.890625z" fill-rule="nonzero"/></g></svg>